<svg id="Capa_1" enable-background="new 0 0 512 512" height="512" viewBox="0 0 512 512" width="512" xmlns="http://www.w3.org/2000/svg" xmlns:xlink="http://www.w3.org/1999/xlink"><linearGradient id="SVGID_1_" gradientUnits="userSpaceOnUse" x1="200" x2="200" y1="512" y2="0"><stop offset="0" stop-color="#ffbef9"/><stop offset="1" stop-color="#fff1ff"/></linearGradient><linearGradient id="SVGID_00000024687011656665258310000015299087904497803664_" gradientUnits="userSpaceOnUse" x1="256" x2="256" y1="512" y2="0"><stop offset="0" stop-color="#a93aff"/><stop offset="1" stop-color="#ff81ff"/></linearGradient><g><path d="m400 15v482c0 8.284-6.716 15-15 15h-370c-8.284 0-15-6.716-15-15v-382h100c8.284 0 15-6.716 15-15v-100h270c8.284 0 15 6.716 15 15z" fill="url(#SVGID_1_)"/><path d="m305 241h-250c-8.284 0-15-6.716-15-15s6.716-15 15-15h250c8.284 0 15 6.716 15 15s-6.716 15-15 15zm-130-70h170c8.284 0 15-6.716 15-15s-6.716-15-15-15h-170c-8.284 0-15 6.716-15 15s6.716 15 15 15zm-60-71v-100c-3.978 0-7.793 1.581-10.606 4.394l-100 100c-2.813 2.813-4.394 6.628-4.394 10.606h100c8.284 0 15-6.716 15-15zm60 1h170c8.284 0 15-6.716 15-15s-6.716-15-15-15h-170c-8.284 0-15 6.716-15 15s6.716 15 15 15zm20 310c-8.284 0-15 6.716-15 15s6.716 15 15 15 15-6.716 15-15-6.716-15-15-15zm-60 0c-8.284 0-15 6.716-15 15s6.716 15 15 15 15-6.716 15-15-6.716-15-15-15zm-60 0c-8.284 0-15 6.716-15 15s6.716 15 15 15 15-6.716 15-15-6.716-15-15-15zm397 26v-15c0-22.091-17.909-40-40-40h-5.508l16.051-128.41c3.424-27.394-17.936-51.59-45.543-51.59-27.607 0-48.967 24.196-45.543 51.59l16.051 128.41h-5.508c-22.091 0-40 17.909-40 40v15c-22.091 0-40 17.909-40 40v20c0 8.284 6.716 15 15 15h200c8.284 0 15-6.716 15-15v-20c0-22.091-17.909-40-40-40zm-339.727-60.393 53.333-53.333c5.858-5.858 5.858-15.355 0-21.213s-15.355-5.858-21.213 0l-42.727 42.727-16.06-16.06c-5.858-5.858-15.355-5.858-21.213 0s-5.858 15.355 0 21.213l26.667 26.667c5.858 5.857 15.355 5.857 21.213-.001z" fill="url(#SVGID_00000024687011656665258310000015299087904497803664_)"/></g></svg>